<svg width="31" height="35" viewBox="0 0 31 35" fill="none" xmlns="http://www.w3.org/2000/svg">
<path d="M23.8011 16.2218C23.6503 16.1496 23.4972 16.08 23.3421 16.0134C23.0719 11.0356 20.352 8.18581 15.7848 8.15664C15.7641 8.15651 15.7435 8.15651 15.7228 8.15651C12.9911 8.15651 10.7191 9.32256 9.32076 11.4444L11.8326 13.1674C12.8772 11.5825 14.5167 11.2446 15.724 11.2446C15.738 11.2446 15.752 11.2446 15.7658 11.2448C17.2696 11.2543 18.4044 11.6916 19.1388 12.5442C19.6733 13.165 20.0308 14.0228 20.2078 15.1054C18.8745 14.8788 17.4326 14.8091 15.8911 14.8975C11.5489 15.1476 8.75731 17.6801 8.9448 21.1991C9.03994 22.9841 9.92919 24.5197 11.4486 25.5228C12.7333 26.3709 14.3879 26.7856 16.1075 26.6917C18.3785 26.5672 20.16 25.7008 21.4029 24.1165C22.3468 22.9133 22.9438 21.3542 23.2074 19.3896C24.2896 20.0428 25.0917 20.9023 25.5347 21.9355C26.2879 23.6919 26.3319 26.5781 23.9768 28.9311C21.9135 30.9925 19.4332 31.8843 15.6848 31.9118C11.5269 31.881 8.38228 30.5475 6.33776 27.9484C4.42322 25.5146 3.43378 21.9993 3.39686 17.5C3.43378 13.0006 4.42322 9.48529 6.33776 7.05153C8.38228 4.45246 11.5268 3.11901 15.6848 3.08811C19.8729 3.11925 23.0723 4.45911 25.1951 7.07073C26.236 8.35144 27.0207 9.96202 27.5381 11.8399L30.4815 11.0546C29.8545 8.74311 28.8677 6.7513 27.525 5.09943C24.8035 1.75122 20.8234 0.0355739 15.695 0H15.6745C10.5566 0.0354503 6.62104 1.75762 3.97712 5.11862C1.62439 8.1095 0.410779 12.2711 0.370001 17.4877L0.369873 17.5L0.370001 17.5123C0.410779 22.7289 1.62439 26.8906 3.97712 29.8814C6.62104 33.2423 10.5566 34.9646 15.6745 35H15.695C20.2451 34.9685 23.4524 33.7772 26.0945 31.1374C29.5513 27.6839 29.4472 23.355 28.3079 20.6976C27.4905 18.7919 25.9321 17.2441 23.8011 16.2218ZM15.945 23.608C14.0418 23.7152 12.0647 22.861 11.9672 21.0314C11.8949 19.6747 12.9326 18.161 16.0618 17.9807C16.4201 17.96 16.7717 17.9499 17.1172 17.9499C18.2538 17.9499 19.3171 18.0603 20.2838 18.2716C19.9232 22.7746 17.8083 23.5058 15.945 23.608Z" fill="black"/>
</svg>
