<svg width="18" height="18" viewBox="0 0 18 18" fill="none" xmlns="http://www.w3.org/2000/svg">
<path d="M13.9167 13.4917C13.7 12.8251 13.075 12.3334 12.3334 12.3334H11.5V9.83341C11.5 9.6124 11.4122 9.40044 11.2559 9.24416C11.0997 9.08788 10.8877 9.00008 10.6667 9.00008H5.66669V7.33341H7.33335C7.55437 7.33341 7.76633 7.24562 7.92261 7.08934C8.07889 6.93306 8.16669 6.7211 8.16669 6.50008V4.83341H9.83335C10.2754 4.83341 10.6993 4.65782 11.0119 4.34526C11.3244 4.0327 11.5 3.60878 11.5 3.16675V2.82508C12.4971 3.22705 13.3819 3.86464 14.0787 4.68328C14.7755 5.50191 15.2636 6.4772 15.5011 7.52567C15.7387 8.57414 15.7186 9.66456 15.4427 10.7036C15.1667 11.7426 14.6431 12.6993 13.9167 13.4917ZM8.16669 15.6084C4.87502 15.2001 2.33335 12.4001 2.33335 9.00008C2.33335 8.48341 2.40002 7.98341 2.50835 7.50841L6.50002 11.5001V12.3334C6.50002 12.7754 6.67562 13.1994 6.98818 13.5119C7.30074 13.8245 7.72466 14.0001 8.16669 14.0001M9.00002 0.666748C7.90567 0.666748 6.82204 0.882296 5.81099 1.30109C4.79994 1.71987 3.88129 2.3337 3.10746 3.10752C1.54466 4.67033 0.666687 6.78994 0.666687 9.00008C0.666687 11.2102 1.54466 13.3298 3.10746 14.8926C3.88129 15.6665 4.79994 16.2803 5.81099 16.6991C6.82204 17.1179 7.90567 17.3334 9.00002 17.3334C11.2102 17.3334 13.3298 16.4554 14.8926 14.8926C16.4554 13.3298 17.3334 11.2102 17.3334 9.00008C17.3334 7.90573 17.1178 6.8221 16.699 5.81105C16.2802 4.80001 15.6664 3.88135 14.8926 3.10752C14.1188 2.3337 13.2001 1.71987 12.189 1.30109C11.178 0.882296 10.0944 0.666748 9.00002 0.666748Z" fill="#141414"/>
</svg>
