<svg width="24" height="24" viewBox="0 0 24 24" fill="none" xmlns="http://www.w3.org/2000/svg">
<g id="mdi:paperclip" clip-path="url(#clip0_234_1067)">
<path id="Vector" d="M19.5711 10.5858L11.4394 18.7175C10.6892 19.4677 9.67179 19.8891 8.61093 19.8891C7.55006 19.8891 6.53264 19.4677 5.7825 18.7175C5.03235 17.9674 4.61093 16.95 4.61093 15.8891C4.61092 14.8282 5.03235 13.8108 5.7825 13.0607L14.6213 4.22185C15.0902 3.75301 15.7261 3.48962 16.3891 3.48962C17.0521 3.48962 17.688 3.75301 18.1569 4.22185C18.6257 4.69069 18.8891 5.32658 18.8891 5.98962C18.8891 6.65266 18.6257 7.28854 18.1569 7.75738L10.7322 15.182C10.5447 15.3695 10.2904 15.4749 10.0251 15.4749C9.75992 15.4749 9.50557 15.3695 9.31803 15.182C9.1305 14.9945 9.02514 14.7401 9.02514 14.4749C9.02514 14.2097 9.13049 13.9553 9.31803 13.7678L16.0355 7.05028L14.9749 5.98962L8.25737 12.7071C7.78853 13.176 7.52514 13.8119 7.52514 14.4749C7.52514 15.1379 7.78853 15.7738 8.25737 16.2427C8.72621 16.7115 9.3621 16.9749 10.0251 16.9749C10.6882 16.9749 11.3241 16.7115 11.7929 16.2427L19.2175 8.81804C19.9677 8.0679 20.3891 7.05048 20.3891 5.98962C20.3891 4.92875 19.9677 3.91134 19.2175 3.16119C18.4674 2.41105 17.45 1.98962 16.3891 1.98962C15.3282 1.98962 14.3108 2.41105 13.5607 3.16119L4.72184 12C3.69039 13.0315 3.11092 14.4304 3.11092 15.8891C3.11092 17.3478 3.69039 18.7467 4.72184 19.7782C5.75329 20.8096 7.15223 21.3891 8.61092 21.3891C10.0696 21.3891 11.4686 20.8096 12.5 19.7782L20.6317 11.6465L19.5711 10.5858Z" fill="#999999"/>
</g>
<defs>
<clipPath id="clip0_234_1067">
<rect width="24" height="24" fill="white"/>
</clipPath>
</defs>
</svg>
